<svg id="visual" viewBox="0 0 900 600" width="900" height="600" xmlns="http://www.w3.org/2000/svg" xmlns:xlink="http://www.w3.org/1999/xlink" version="1.1"><rect x="0" y="0" width="900" height="600" fill="#FEE4AD"></rect><defs><linearGradient id="grad1_0" x1="33.3%" y1="0%" x2="100%" y2="100%"><stop offset="20%" stop-color="#fee4ad" stop-opacity="1"></stop><stop offset="80%" stop-color="#fee4ad" stop-opacity="1"></stop></linearGradient></defs><defs><linearGradient id="grad2_0" x1="0%" y1="0%" x2="66.7%" y2="100%"><stop offset="20%" stop-color="#fee4ad" stop-opacity="1"></stop><stop offset="80%" stop-color="#fee4ad" stop-opacity="1"></stop></linearGradient></defs><g transform="translate(900, 0)"><path d="M0 378.6C-37.7 374.2 -75.5 369.9 -117 360.1C-158.5 350.2 -203.9 334.9 -215.1 296.1C-226.4 257.3 -203.6 194.9 -226.5 164.6C-249.4 134.3 -318 136.1 -350.9 114C-383.9 91.9 -381.2 46 -378.6 0L0 0Z" fill="#D62598"></path></g><g transform="translate(0, 600)"><path d="M0 -378.6C32.2 -356.5 64.5 -334.4 106.6 -328.1C148.8 -321.9 200.8 -331.4 222.5 -306.3C244.2 -281.1 235.6 -221.2 256.5 -186.3C277.3 -151.4 327.6 -141.5 352.8 -114.6C378.1 -87.8 378.3 -43.9 378.6 0L0 0Z" fill="#D62598"></path></g></svg>